<?xml version="1.0" encoding="utf-8"?>
<!-- Generator: Adobe Illustrator 18.0.0, SVG Export Plug-In . SVG Version: 6.00 Build 0)  -->
<!DOCTYPE svg PUBLIC "-//W3C//DTD SVG 1.1//EN" "http://www.w3.org/Graphics/SVG/1.1/DTD/svg11.dtd">
<svg version="1.1" id="Calque_1" xmlns="http://www.w3.org/2000/svg" xmlns:xlink="http://www.w3.org/1999/xlink" x="0px" y="0px"
	 viewBox="0 0 960 560" enable-background="new 0 0 960 560" xml:space="preserve">
<g>
	<path fill="none" stroke="red" stroke-width="6" stroke-linecap="round" stroke-miterlimit="10" d="M257.1,144.3
		c0,0,0,0.8-30.9-36.4c-33.5,0-42-26.3-42-26.3"/>
	<path d="M215.2,108.9l11.4-11.4l10.6,10.6l-11,11C226.2,119.1,216,109.8,215.2,108.9z"/>
</g>
<g>
	<polyline fill="none" stroke="green" stroke-width="6" stroke-linecap="round" stroke-miterlimit="10" points="409.6,141.8
		375.2,98.9 344.3,142.6 	"/>
	<path d="M364.2,99.9l11.4-11.4l10.6,10.6l-11,11C375.2,110.1,365,100.8,364.2,99.9z"/>
</g>
<g>
	<path d="M388.2,243.9l11.4-11.4l10.6,10.6l-11,11C399.2,254.1,389,244.8,388.2,243.9z"/>
	<path fill="none" stroke="blue" stroke-width="6" stroke-linecap="round" stroke-miterlimit="10" d="M350,243
		c0,0,24.5-33.5,49,0c22.2-33.5,49,0,49,0"/>
</g>
<g>
	<path d="M78.2,224.9l11.4-11.4l10.6,10.6l-11,11C89.2,235.1,79,225.8,78.2,224.9z"/>
	<path fill="none" stroke="pink" stroke-width="6" stroke-linecap="round" stroke-miterlimit="10" d="M50.3,252.8
		c0,0,10.2-28,41.5-28c27.1,0,36.4,28.8,36.4,28.8"/>
</g>
<g>
	<path d="M228.2,224.9l11.4-11.4l10.6,10.6l-11,11C239.2,235.1,229,225.8,228.2,224.9z"/>
	<path fill="none" stroke="yellow" stroke-width="6" stroke-linecap="round" stroke-miterlimit="10" d="M197.3,251.8
		c0,0,19.5-77.5,41.5-28c7.2,16.3,36.4,28.8,36.4,28.8"/>
</g>
<g>
	<path d="M85.2,108.9l11.4-11.4l10.6,10.6l-11,11C96.2,119.1,86,109.8,85.2,108.9z"/>
	<path fill="none" stroke="orange" stroke-width="6" stroke-linecap="round" stroke-miterlimit="10" d="M64.1,144.4
		c0,0,0,0.8,31.8-35.6c33.5,0.8,42.7-25.2,42.7-25.2"/>
</g>
</svg>
